<?xml version="1.0" encoding="utf-8"?>
<!-- Generator: Adobe Illustrator 17.1.0, SVG Export Plug-In . SVG Version: 6.00 Build 0)  -->
<!DOCTYPE svg PUBLIC "-//W3C//DTD SVG 1.1//EN" "http://www.w3.org/Graphics/SVG/1.1/DTD/svg11.dtd">
<svg version="1.1" id="Layer_1" xmlns="http://www.w3.org/2000/svg" xmlns:xlink="http://www.w3.org/1999/xlink" x="0px" y="0px"
	 viewBox="281.8 630 480 481" enable-background="new 281.8 630 480 481" xml:space="preserve">
<g>
	<g>
		<g>
			<g>
				<path d="M583.5,1098.7c-12,0-23.6-5-34.9-9.9l-0.9-0.4c-9.1-3.9-18.7-8-25.9-8c-7.3,0-16.9,4.1-26.2,8.1l-0.2,0.1
					c-11.4,4.9-23.2,10-35.5,10c-4,0-8-0.6-11.8-1.8c-16.9-5.5-26.1-21.4-34.3-35.4l-0.2-0.4c-4.9-8.3-9.9-16.9-15.4-20.8
					c-5.5-4-15.5-6.3-25-8.4l-0.2-0.1c-15.7-3.4-33.7-7.3-43.9-21.4c-10.1-13.9-8.4-32-6.9-48.1c1-9.9,1.9-20.2-0.3-27
					c-2-6.3-8.7-13.8-15.1-20.9c-10.9-12.1-23.2-26-23.2-43.9c0-17.9,12.3-31.7,23.2-43.9l0.1-0.1c6.4-7.2,13-14.6,15.1-20.8
					c2.2-6.8,1.2-17.5,0.3-26.9v-0.2c-1.5-15.9-3.2-34,6.9-47.9c10.3-14.1,28.1-18,43.8-21.4l0.2-0.1c9.6-2.1,19.6-4.3,25.1-8.4
					c5.5-4,10.6-12.7,15.5-21.2l0.2-0.4c8.2-13.9,17.5-29.5,34-34.9c3.7-1.2,7.7-1.8,11.8-1.8c12.3,0,24,5.1,35.5,10
					c9.3,4,18.9,8.2,26.3,8.2c7.5,0,17.5-4.3,26.2-8.2c11.5-4.9,23.2-10,35.5-10c4.1,0,8.1,0.6,11.8,1.8c16.7,5.5,26,21.3,34.2,35.2
					l0.1,0.2c4.9,8.5,10,17.2,15.5,21.1c5.6,4.1,15.5,6.3,25.1,8.5l0.1,0.1c15.7,3.4,33.6,7.4,43.8,21.4
					c10.1,13.9,8.5,31.9,6.9,47.8l-0.1,0.4c-0.9,9.8-1.9,20,0.3,26.7c2,6.3,8.7,13.7,15.1,20.9l0.1,0.1c10.9,12.2,23.2,26,23.2,43.9
					c0,17.9-12.3,31.7-23.2,43.9l-0.1,0.1c-6.4,7.2-13,14.5-15.1,20.7c-2.2,6.8-1.2,17.5-0.3,27v0.2c1.5,15.9,3.2,34-6.9,47.9
					c-10.3,14.1-28.1,18-43.8,21.4h-0.1c-9.7,2.1-19.6,4.3-25.3,8.5c-5.5,4-10.6,12.7-15.6,21.2l-0.1,0.2
					c-8.2,13.9-17.5,29.8-34.1,35.2C591.6,1098.1,587.6,1098.7,583.5,1098.7z M521.9,1054.4c12.8,0,25,5.2,36.7,10.4
					c9.1,4,18.6,7.9,25.1,7.9c1.3,0,2.5-0.2,3.6-0.4c7.3-2.4,13.6-13.2,19.8-23.7c6.3-10.7,12.7-21.8,22.8-29.1
					c10-7.3,22.7-10.1,35-12.8c11.8-2.6,23.8-5.2,28.3-11.4c4.3-5.9,3.2-17.6,2-30.1V965c-1.3-12.6-2.5-25.5,1.4-37.5
					c3.7-11.5,12.1-21,20.4-30.2l0.1-0.1c8.1-9.1,16.4-18.5,16.4-26.5c0-7.9-8.3-17.2-16.3-26.2l-0.3-0.3
					c-8.2-9.1-16.6-18.7-20.4-30.2c-3.8-11.8-2.6-24.7-1.4-37l0.1-0.6c1.2-12.4,2.3-24.1-2-30.1c-4.5-6.1-16.6-8.8-28.3-11.4
					c-12.3-2.7-25-5.5-35-12.8c-10-7.3-16.4-18.4-22.7-29.1c-6.1-10.6-12.4-21.4-19.7-23.8c-1-0.3-2.3-0.5-3.7-0.5
					c-6.3,0-15.5,3.7-25,7.9c-11.8,5.1-23.8,10.4-36.7,10.4c-12.6,0-24.7-5.2-36.2-10.2l-0.4-0.2c-9.6-4.2-18.7-7.9-25-7.9
					c-1.4,0-2.6,0.2-3.7,0.5c-7.3,2.4-13.6,13.2-19.8,23.8c-6.3,10.7-12.7,21.8-22.7,29.1c-10,7.3-22.7,10.1-35,12.8
					c-11.8,2.6-24,5.2-28.4,11.4c-4.3,5.9-3.2,17.6-2,30.1v0.1c1.3,12.6,2.5,25.6-1.4,37.6c-3.7,11.4-12.1,20.9-20.2,30.1l-0.1,0.1
					c-8.2,9.1-16.6,18.6-16.6,26.6c0,8.1,8.8,17.9,16.6,26.5c8.2,9.2,16.6,18.7,20.4,30.2c3.9,11.8,2.6,24.9,1.5,37.4v0.1
					c-1.1,11.8-2.3,24.1,2,30.1c4.4,6.1,16.6,8.8,28.4,11.4l0.6,0.1c12.1,2.7,24.5,5.5,34.4,12.7c10,7.3,16.4,18.4,22.7,29.1
					c5.8,10,12.4,21.4,19.8,23.8c1,0.3,2.2,0.4,3.5,0.4c6.5,0,16-3.9,25.2-7.9l0.2-0.1C497.1,1059.6,509.2,1054.4,521.9,1054.4z"/>
				<path fill="#FFFFFF" d="M460.1,644.3c11.8,0,23.5,5,34.6,9.9c9.5,4.1,19.3,8.3,27.1,8.3c7.9,0,18-4.4,27-8.3
					c11.2-4.9,22.9-9.9,34.6-9.9c3.9,0,7.7,0.6,11.2,1.7c16,5.2,25.1,20.7,33.1,34.3l0.1,0.1l0.1,0.1c5,8.5,10.3,17.5,16,21.7
					c5.9,4.3,16,6.6,25.9,8.8l0.2,0.1c15.4,3.4,32.9,7.3,42.7,20.8c9.7,13.3,8,30.9,6.5,46.5v0.2v0.2c-0.9,10-1.9,20.4,0.4,27.4
					c2.2,6.7,8.9,14.2,15.5,21.6l0.1,0.1c10.6,11.9,22.6,25.5,22.6,42.7c0,17.2-12,30.7-22.6,42.7l-0.1,0.1
					c-6.5,7.3-13.3,14.9-15.5,21.4c-2.4,7.2-1.3,17.6-0.4,27.7v0.2c1.5,15.6,3.1,33.3-6.6,46.6c-9.8,13.5-27.3,17.3-42.7,20.8h-0.1
					c-9.8,2.2-20,4.4-26,8.8c-5.8,4.2-11.1,13.1-16.1,21.7l-0.1,0.2c-4.2,7.1-8.5,14.5-13.8,20.7c-5.9,6.8-12.1,11.3-19.3,13.6
					c-3.5,1.1-7.3,1.7-11.2,1.7c-11.6,0-23.1-4.9-34.1-9.7l-0.4-0.2l-0.4-0.1c-9.4-4-19-8.2-26.7-8.2c-7.8,0-17.5,4.2-26.9,8.3
					l-0.2,0.1c-11.2,4.9-22.8,9.9-34.6,9.9c-3.9,0-7.6-0.6-11.2-1.7c-16.2-5.2-25.2-20.8-33.2-34.5l0,0l0,0l-0.2-0.4
					c-5-8.5-10.2-17.2-15.9-21.4c-5.8-4.3-16-6.5-25.8-8.7l-0.2-0.1c-15.4-3.4-32.9-7.3-42.7-20.8c-9.7-13.3-8-31.1-6.5-46.7
					c1-10,2-20.5-0.4-27.7c-2.2-6.7-8.9-14.3-15.5-21.6c-10.6-11.9-22.7-25.5-22.7-42.7s12-30.7,22.6-42.7l0.1-0.1
					c6.6-7.3,13.3-14.9,15.5-21.5c2.4-7.2,1.3-17.6,0.4-27.7v-0.2c-1.5-15.6-3.1-33.3,6.6-46.6c9.8-13.5,27.3-17.3,42.7-20.8
					l0.2-0.1c9.7-2.2,19.9-4.4,25.9-8.7c5.8-4.2,11-13.1,16-21.7l0.3-0.4c4.2-7,8.5-14.3,13.8-20.5c5.8-6.8,12.1-11.2,19.2-13.5
					C452.4,644.9,456.2,644.3,460.1,644.3 M521.8,684.9c-12.2,0-24.1-5.1-35.5-10l-0.4-0.2c-9.7-4.3-19-8-25.8-8
					c-1.6,0-3,0.2-4.3,0.6c-8,2.6-14.5,13.8-20.8,24.6c-6.1,10.6-12.6,21.4-22.2,28.5c-9.7,7.1-22.2,9.8-34.3,12.5
					c-12.1,2.6-24.7,5.4-29.5,12.1c-4.7,6.5-3.6,18.6-2.4,31.3v0.1c1.2,12.4,2.5,25.1-1.3,36.7c-3.6,11-11.9,20.4-19.9,29.4
					l-0.1,0.1c-8.5,9.4-17.1,19.2-17.1,27.9c0,8.8,8.7,18.4,17.1,27.8c8,9.1,16.4,18.4,20,29.6c3.7,11.5,2.5,24.3,1.4,36.7v0.1v0.1
					c-1.2,12.8-2.3,24.9,2.4,31.3c4.9,6.7,17.4,9.4,29.5,12.1l0.6,0.1c11.9,2.6,24.1,5.4,33.7,12.4c9.7,7,16,18,22.2,28.5
					c6.3,10.8,12.7,22,20.8,24.6l0,0l0,0c1.2,0.4,2.6,0.6,4.1,0.6c6.8,0,16.6-4,25.9-8l0.2-0.1c11.5-5,23.5-10.1,35.8-10.1
					c12.4,0,24.4,5.2,36,10.2c9.3,4,19,8,25.9,8c1.5,0,2.9-0.2,4.2-0.6l0,0l0,0c8-2.6,14.5-13.8,20.8-24.5
					c6.1-10.6,12.6-21.4,22.3-28.5c9.7-7.1,22.2-9.8,34.3-12.5c12.7-2.8,24.6-5.4,29.5-12.1c4.7-6.5,3.6-18.6,2.4-31.3v-0.1
					c-1.2-12.3-2.5-25.1,1.3-36.7c3.5-11.1,11.9-20.5,20-29.5l0.1-0.1c8.3-9.4,16.9-19,16.9-27.9c0-8.6-8.2-17.8-16.8-27.6l-0.3-0.3
					c-8-9-16.3-18.3-20-29.5c-3.7-11.4-2.5-24.1-1.4-36.3l0.1-0.4V776c1.2-12.8,2.3-24.9-2.4-31.4c-4.9-6.7-17.4-9.4-29.5-12.1
					c-12.1-2.7-24.7-5.4-34.3-12.5c-9.7-7-16-18-22.2-28.5c-6.3-10.8-12.8-21.9-20.8-24.5c-1.3-0.4-2.7-0.6-4.3-0.6
					c-6.7,0-16,3.8-25.9,8C546.3,679.7,534.3,684.9,521.8,684.9 M460.1,640.4c-4.3,0-8.5,0.7-12.4,1.9c-17.5,5.7-26.9,22-35.4,36.2
					c-4.9,8.3-9.8,16.8-15,20.5c-5.3,3.8-15.1,6-24.6,8.1c-16.1,3.5-34.3,7.6-45,22.3c-10.6,14.5-8.8,33.1-7.3,49.4
					c1,9.7,1.9,19.9-0.2,26.2c-1.9,5.8-8.4,13.1-14.7,20.2c-11.1,12.5-23.7,26.7-23.7,45.3c0,18.7,12.6,32.8,23.7,45.2
					c6.3,7,12.8,14.3,14.7,20.2c2.1,6.4,1.1,16.4,0.2,26.2c-1.5,16.3-3.3,34.9,7.3,49.3c10.6,14.6,28.9,18.7,45,22.3
					c9.5,2.1,19.3,4.3,24.5,8.1c5.1,3.7,10.2,12.3,15.1,20.5c8.3,14.3,17.9,30.5,35.3,36.2c3.9,1.3,8.1,1.9,12.4,1.9
					c12.6,0,24.6-5.2,36.2-10.3c9.1-3.9,18.6-8,25.6-8s16.4,4,25.6,8c11.6,5,23.6,10.3,36.1,10.3c4.3,0,8.5-0.7,12.4-1.9
					c17.5-5.6,26.9-21.9,35.3-36.2c4.9-8.3,9.8-16.8,15.1-20.5c5.2-3.8,15.1-6.1,24.6-8.2c16.1-3.5,34.3-7.5,45-22.3
					c10.6-14.5,8.8-33.1,7.3-49.4c-1-9.7-1.9-19.9,0.2-26.2c1.9-5.7,8.4-13,14.7-20c11.1-12.5,23.7-26.7,23.7-45.3
					c0-18.6-12.6-32.8-23.7-45.3c-6.3-7-12.8-14.3-14.7-20.2c-2-6.4-1.1-16.4-0.2-26.2c1.5-16.3,3.4-34.9-7.3-49.3
					c-10.6-14.6-28.9-18.7-45-22.3c-9.5-2.1-19.3-4.3-24.6-8.2c-5.1-3.7-10.2-12.3-15.1-20.5c-8.4-14.3-17.9-30.5-35.3-36.2
					c-3.9-1.3-8.1-1.9-12.4-1.9c-12.6,0-24.5,5.2-36.2,10.3c-9.1,3.9-18.5,8-25.5,8c-7,0-16.4-4-25.6-8
					C484.7,645.7,472.7,640.4,460.1,640.4L460.1,640.4z M521.8,688.7c13.2,0,25.6-5.4,37.5-10.6c8.8-3.8,18.2-7.7,24.3-7.7
					c1.1,0,2.2,0.1,3.1,0.4c6.6,2.2,12.8,12.7,18.7,22.8c6.4,10.9,13,22.3,23.2,29.7c10.3,7.5,23.3,10.4,35.8,13.1
					c11.4,2.5,23.2,5.1,27.2,10.6c3.9,5.4,2.7,17.3,1.6,28.9c-1.2,12.8-2.5,26,1.5,38.3c3.8,11.8,12.4,21.5,20.8,30.9
					c7.9,8.9,16.1,18.1,16.1,25.3c0,7.3-8.2,16.6-16.1,25.5c-8.3,9.4-16.9,19-20.8,30.9c-4,12.3-2.7,25.5-1.5,38.3
					c1.1,11.6,2.2,23.5-1.6,28.9c-4,5.5-15.7,8.1-27.2,10.6c-12.5,2.7-25.4,5.6-35.7,13.1c-10.3,7.4-16.9,18.7-23.3,29.7
					c-5.9,10.2-12.1,20.7-18.7,22.8c-0.9,0.3-1.9,0.4-3,0.4c-6.1,0-15.5-3.8-24.4-7.7c-11.9-5.2-24.3-10.6-37.5-10.6
					c-13.2,0-25.6,5.4-37.5,10.5c-8.8,3.8-18.3,7.7-24.4,7.7c-1.1,0-2.1-0.2-3-0.4c-6.6-2.2-12.8-12.7-18.7-22.9
					c-6.4-10.9-13-22.3-23.2-29.7c-10.3-7.5-23.2-10.3-35.7-13.1c-11.4-2.5-23.2-5.1-27.2-10.6c-3.9-5.4-2.7-17.3-1.6-28.8
					c1.2-12.8,2.5-26-1.5-38.3c-3.8-11.8-12.4-21.5-20.8-30.9c-7.9-8.8-16.1-18-16.1-25.2c0-7.3,8.2-16.4,16.1-25.3
					c8.3-9.4,16.9-19,20.8-30.9c4-12.3,2.7-25.6,1.5-38.4c-1.1-11.6-2.2-23.5,1.6-28.9c3.9-5.5,15.7-8.1,27.2-10.6
					c12.5-2.7,25.4-5.6,35.7-13.1c10.2-7.4,16.8-18.7,23.2-29.7c5.9-10.2,12.1-20.8,18.7-22.9c0.9-0.3,1.9-0.4,3.1-0.4
					c6.1,0,15.5,3.9,24.3,7.7C496.3,683.3,508.6,688.7,521.8,688.7L521.8,688.7z"/>
			</g>
		</g>
	</g>
	<rect x="281.9" y="688.7" fill="none" width="479.8" height="364.1"/>
	<g enable-background="new    ">
		<path d="M497.5,993.1c0-3.1,1-5.8,3.1-8c2.1-2.2,4.7-3.4,7.8-3.4c3.1,0,5.8,1.1,7.8,3.3c2.1,2.2,3.1,4.9,3.1,8.1
			c0,3.1-1,5.8-3.1,8c-2.1,2.2-4.7,3.4-7.8,3.4c-3.1,0-5.6-1.1-7.8-3.4C498.5,998.9,497.5,996.3,497.5,993.1z M508.9,1034.6
			c-1.1,0-2.2-0.4-2.9-1.2c-0.8-0.8-1.2-1.8-1.2-2.9c0-1.1,0.6-2.7,1.7-4.7l23.1-40.3c1.5-2.6,3.2-4,5-4c2.8,0,4.3,1.2,4.3,3.5
			c0,1.2-0.4,2.6-1.4,4.3l-23.6,41.4C512.3,1033.2,510.7,1034.6,508.9,1034.6z M504.8,993.1c0,1,0.4,1.9,1.1,2.6
			c0.7,0.7,1.6,1.1,2.5,1.1c1,0,1.9-0.4,2.6-1.1c0.7-0.7,1.1-1.6,1.1-2.6c0-1-0.4-1.9-1.1-2.7s-1.6-1.1-2.7-1.1
			c-1,0-1.9,0.4-2.6,1.1C505.1,991.3,504.8,992.1,504.8,993.1z M524.2,1022.6c0-3.1,1-5.8,3.1-8c2.1-2.2,4.7-3.4,7.8-3.4
			c3.1,0,5.8,1.1,7.8,3.3c2.1,2.2,3.1,4.9,3.1,8c0,3.1-1,5.8-3.1,8c-2.1,2.2-4.7,3.4-7.8,3.4s-5.6-1.1-7.8-3.4
			C525.3,1028.4,524.2,1025.7,524.2,1022.6z M531.6,1022.6c0,1,0.4,1.8,1.1,2.6s1.6,1.1,2.5,1.1c1,0,1.9-0.3,2.6-1
			c0.7-0.7,1-1.6,1-2.7s-0.3-2-1-2.7c-0.7-0.7-1.6-1-2.7-1c-1,0-1.9,0.4-2.6,1.1C531.9,1020.7,531.6,1021.6,531.6,1022.6z"/>
	</g>
	<g>
		<path d="M498.8,921.5v20c0,14.2-6.4,21.2-19.4,21.2c-11.3,0-17-7.5-17-22.4v-18.8h-52c-7,0-13-1.9-17.8-5.6s-7.2-9.1-7.2-16
			c0-9.3,4-20.3,12-33.1l40.6-64.6c8-12.7,17.9-19,29.8-19c10.9,0,19,4.3,24.4,12.7c4.5,7,6.7,16.3,6.7,27.6v64
			c12.8,0,19.2,5.7,19.2,17C518,915.8,511.6,921.5,498.8,921.5z M421.1,887.6h41.3V821L421.1,887.6z"/>
		<path d="M526.4,873.5c0-25.9,4.8-46.9,14.4-63.1c11.8-19.8,29.9-29.8,54.2-29.8c24.4,0,42.6,9.8,54.4,29.5
			c9.7,16.1,14.6,37.3,14.6,63.4c0,26.1-4.9,47.1-14.6,63.1c-11.8,19.6-30,29.5-54.4,29.5c-24.1,0-42.1-9.8-54-29.5
			C531.3,920.4,526.4,899.4,526.4,873.5z M595.3,817.3c-11.3,0-19.5,6.9-24.4,20.7c-3.4,9.4-5,21.1-5,35.1c0,14.1,1.6,25.9,5,35.3
			c4.8,13.9,13,20.9,24.4,20.9c11.5,0,19.6-7,24.4-20.9c3.4-9.4,5-21.2,5-35.3C624.8,835.9,615,817.3,595.3,817.3z"/>
	</g>
</g>
<g>
	<path d="M512.9,746.5h-26.5c0,3.4,0,5.3-0.1,5.8c-0.4,2.3-1.7,3.5-3.7,3.5c-3.6,0-5.4-1.9-5.4-5.7v-7.4c0-2.4,0.6-3.9,1.7-4.5
		c1-0.2,2-0.5,3.1-0.6c1.2-0.5,1.7-2,1.7-4.4v-14.7c0-4.3,1.2-7.4,3.5-9.3c2.1-1.7,5.4-2.5,9.8-2.5h14.5c2.4,0,4,0.8,4.8,2.4
		c0.6,1.2,0.9,3,0.9,5.5v23.3c3.4,0,5,1.7,5,5v7.3c0,3.8-1.8,5.7-5.4,5.7c-2,0-3.2-1.2-3.7-3.5C513,751.7,512.9,749.7,512.9,746.5z
		 M493.2,737.9h12.5V716H497c-1.8,0-2.7,0.9-2.7,2.7v14.5C494.3,734.7,494,736.3,493.2,737.9z"/>
	<path d="M551.3,743c-2.4,2.9-5.7,4.4-9.8,4.4c-5.2,0-9.6-2.2-13-6.5c-3.1-4-4.7-8.7-4.7-14c0-5.4,1.6-10.2,4.9-14.2
		c3.5-4.3,7.8-6.5,13.2-6.5c3.9,0,7,1.4,9.4,4.2c1.3-2.4,3.2-3.7,5.5-3.7c3.8,0,5.8,2.8,5.8,8.4v23.4c0,5.7-1.9,8.5-5.8,8.5
		C554.3,747.1,552.4,745.7,551.3,743z M535.9,726.7c0,2.5,0.6,4.7,1.8,6.5c1.4,2,3.3,3,5.7,3c2.4,0,4.3-1,5.7-3
		c1.1-1.8,1.7-3.9,1.7-6.5c0-2.5-0.6-4.7-1.7-6.4c-1.3-2-3.2-3-5.7-3c-2.4,0-4.3,1-5.7,3C536.5,722.1,535.9,724.2,535.9,726.7z"/>
</g>
</svg>
