<?xml version="1.0" encoding="utf-8"?>
<!-- Generator: Adobe Illustrator 17.1.0, SVG Export Plug-In . SVG Version: 6.00 Build 0)  -->
<!DOCTYPE svg PUBLIC "-//W3C//DTD SVG 1.1//EN" "http://www.w3.org/Graphics/SVG/1.1/DTD/svg11.dtd">
<svg version="1.1" id="Layer_1" xmlns="http://www.w3.org/2000/svg" xmlns:xlink="http://www.w3.org/1999/xlink" x="0px" y="0px"
	 viewBox="100.9 275.3 640 640" enable-background="new 100.9 275.3 640 640" xml:space="preserve">
<g>
	<g>
		<g>
			<path d="M503.1,899.6c-16,0-31.5-6.7-46.6-13.2l-1.2-0.5c-12.2-5.2-24.9-10.7-34.6-10.7c-9.8,0-22.6,5.5-34.9,10.8l-0.3,0.1
				c-15.2,6.6-30.9,13.4-47.3,13.4c-5.4,0-10.7-0.8-15.7-2.4c-22.5-7.4-34.8-28.5-45.7-47.2l-0.3-0.5c-6.5-11.1-13.2-22.5-20.5-27.7
				c-7.4-5.4-20.7-8.4-33.4-11.2l-0.3-0.1c-21-4.6-44.9-9.8-58.6-28.6c-13.5-18.5-11.2-42.7-9.2-64.1c1.3-13.2,2.6-26.9-0.4-36
				c-2.7-8.4-11.6-18.4-20.1-27.9c-14.5-16.2-30.9-34.7-30.9-58.6c0-23.9,16.4-42.3,30.9-58.6l0.1-0.1c8.6-9.6,17.4-19.5,20.1-27.8
				c3-9.1,1.6-23.3,0.4-35.9v-0.3c-2-21.2-4.3-45.3,9.2-63.9c13.7-18.8,37.5-24,58.4-28.6l0.3-0.1c12.8-2.8,26.1-5.8,33.5-11.2
				c7.3-5.3,14.1-16.9,20.7-28.3l0.3-0.6c10.9-18.5,23.3-39.4,45.4-46.6c5-1.6,10.3-2.4,15.8-2.4c16.4,0,32,6.8,47.3,13.4
				c12.4,5.4,25.2,10.9,35.1,10.9c10,0,23.3-5.8,35-10.9c15.3-6.6,31-13.4,47.3-13.4c5.5,0,10.8,0.8,15.8,2.4
				c22.3,7.3,34.7,28.4,45.6,47l0.1,0.3c6.6,11.3,13.4,22.9,20.7,28.2c7.5,5.5,20.7,8.4,33.5,11.3l0.2,0.1
				c21,4.6,44.8,9.9,58.4,28.6c13.5,18.5,11.3,42.5,9.2,63.8l-0.1,0.6c-1.2,13.1-2.5,26.7,0.4,35.6c2.7,8.4,11.6,18.3,20.1,27.9
				l0.1,0.1c14.5,16.3,30.9,34.7,30.9,58.6c0,23.9-16.4,42.3-30.9,58.6l-0.1,0.1c-8.6,9.6-17.4,19.4-20.1,27.6
				c-3,9.1-1.6,23.4-0.4,36v0.3c2,21.2,4.3,45.3-9.2,63.9c-13.7,18.8-37.5,24-58.4,28.6h-0.1c-12.9,2.8-26.2,5.8-33.8,11.3
				c-7.4,5.3-14.2,16.9-20.8,28.3l-0.1,0.3c-10.9,18.6-23.3,39.7-45.5,46.9C514,898.8,508.6,899.6,503.1,899.6z M421,840.5
				c17.1,0,33.3,7,49,13.9c12.1,5.3,24.8,10.5,33.5,10.5c1.8,0,3.4-0.2,4.8-0.6c9.8-3.2,18.2-17.6,26.4-31.6
				c8.4-14.3,17-29.1,30.4-38.8c13.4-9.8,30.3-13.5,46.7-17.1c15.7-3.5,31.8-7,37.8-15.2c5.8-7.9,4.3-23.5,2.7-40.1v-0.2
				c-1.7-16.8-3.3-34,1.9-50c4.9-15.3,16.2-28,27.2-40.3l0.2-0.2c10.8-12.1,21.9-24.7,21.9-35.4c0-10.5-11.1-23-21.8-35l-0.4-0.4
				c-10.9-12.2-22.2-24.9-27.2-40.3c-5.1-15.7-3.5-32.9-1.9-49.4l0.1-0.8c1.6-16.6,3.1-32.2-2.7-40.1c-6-8.1-22.1-11.7-37.8-15.2
				c-16.4-3.6-33.4-7.4-46.7-17.1c-13.3-9.7-21.9-24.5-30.3-38.8c-8.1-14.1-16.6-28.6-26.3-31.7c-1.4-0.4-3.1-0.7-4.9-0.7
				c-8.4,0-20.7,5-33.4,10.6c-15.7,6.8-31.8,13.9-49,13.9c-16.8,0-32.9-6.9-48.3-13.6l-0.6-0.3c-12.8-5.6-24.9-10.6-33.4-10.6
				c-1.9,0-3.5,0.3-4.9,0.7c-9.8,3.2-18.2,17.6-26.4,31.7c-8.4,14.3-17,29.1-30.3,38.8c-13.4,9.8-30.3,13.5-46.7,17.1
				c-15.7,3.5-32,7-37.9,15.2c-5.8,7.9-4.3,23.5-2.7,40.1v0.2c1.7,16.8,3.3,34.1-1.9,50.1c-4.9,15.2-16.2,27.9-27,40.2l-0.1,0.1
				c-10.9,12.2-22.2,24.8-22.2,35.5c0,10.8,11.8,23.9,22.2,35.4c10.9,12.3,22.2,25,27.2,40.3c5.2,15.8,3.5,33.2,2,49.9v0.2
				c-1.5,15.8-3.1,32.2,2.7,40.1c5.9,8.1,22.2,11.7,37.9,15.2l0.8,0.2c16.1,3.6,32.7,7.4,45.9,16.9c13.3,9.7,21.9,24.5,30.3,38.8
				c7.7,13.3,16.5,28.5,26.4,31.7c1.4,0.4,3,0.6,4.7,0.6c8.7,0,21.4-5.2,33.6-10.5l0.3-0.1C387.9,847.4,404,840.5,421,840.5z"/>
			<path fill="#FFFFFF" d="M338.6,293.6c15.8,0,31.3,6.7,46.2,13.2c12.7,5.5,25.7,11.1,36.1,11.1c10.5,0,24-5.9,36-11.1
				c15-6.5,30.6-13.2,46.2-13.2c5.2,0,10.3,0.8,15,2.3c21.4,7,33.5,27.6,44.2,45.8l0.1,0.2l0.1,0.1c6.7,11.4,13.7,23.3,21.4,28.9
				c7.9,5.8,21.4,8.8,34.5,11.7l0.3,0.1c20.6,4.5,43.9,9.7,57,27.7c12.9,17.7,10.7,41.2,8.7,62v0.3v0.3c-1.2,13.4-2.5,27.2,0.5,36.6
				c2.9,8.9,11.9,19,20.7,28.8l0.1,0.1c14.1,15.9,30.2,34,30.2,56.9s-16,40.9-30.2,56.9l-0.1,0.1c-8.7,9.8-17.8,19.9-20.7,28.5
				c-3.2,9.6-1.8,23.5-0.5,37v0.3c2,20.8,4.2,44.4-8.8,62.1c-13.1,18-36.4,23.1-56.9,27.7h-0.1c-13.1,2.9-26.7,5.9-34.7,11.7
				c-7.8,5.6-14.8,17.5-21.5,29l-0.1,0.3c-5.6,9.5-11.3,19.3-18.4,27.6c-7.9,9.1-16.2,15.1-25.7,18.2c-4.7,1.5-9.8,2.3-15,2.3
				c-15.5,0-30.8-6.6-45.5-13l-0.6-0.3l-0.5-0.2c-12.5-5.4-25.3-10.9-35.6-10.9c-10.4,0-23.3,5.6-35.9,11.1l-0.3,0.1
				c-15,6.5-30.4,13.2-46.2,13.2c-5.2,0-10.2-0.8-15-2.3c-21.6-7-33.6-27.8-44.3-46l0,0l0,0l-0.3-0.5c-6.7-11.3-13.6-23-21.2-28.5
				c-7.8-5.8-21.4-8.7-34.4-11.6l-0.3-0.1c-20.6-4.5-43.9-9.7-57-27.7c-13-17.8-10.7-41.5-8.7-62.3c1.3-13.4,2.7-27.4-0.5-37
				c-2.9-9-11.9-19.1-20.7-28.8c-14.2-15.9-30.3-34-30.3-56.9c0-22.9,16-40.9,30.2-56.9l0.1-0.1c8.8-9.8,17.8-19.9,20.7-28.7
				c3.2-9.6,1.8-23.5,0.5-37v-0.3c-2-20.8-4.2-44.4,8.8-62.1c13.1-18,36.4-23.1,57-27.7l0.3-0.1c13-2.9,26.6-5.9,34.5-11.6
				c7.7-5.6,14.7-17.5,21.4-29l0.4-0.6c5.6-9.4,11.3-19.1,18.4-27.4c7.8-9.1,16.2-15,25.6-18C328.3,294.3,333.4,293.6,338.6,293.6
				 M420.9,347.7c-16.3,0-32.1-6.8-47.3-13.4L373,334c-13-5.7-25.4-10.7-34.4-10.7c-2.1,0-4,0.3-5.7,0.8
				c-10.7,3.5-19.4,18.4-27.8,32.8c-8.2,14.1-16.8,28.6-29.6,38c-13,9.5-29.6,13.1-45.7,16.7c-16.2,3.5-32.9,7.2-39.4,16.1
				c-6.3,8.7-4.8,24.8-3.2,41.8v0.2c1.6,16.5,3.3,33.5-1.8,49c-4.8,14.7-15.9,27.2-26.5,39.2l-0.1,0.1
				c-11.3,12.6-22.8,25.6-22.8,37.2c0,11.8,11.6,24.6,22.8,37.1c10.7,12.1,21.9,24.6,26.7,39.5c5,15.3,3.4,32.4,1.9,48.9v0.1v0.1
				c-1.6,17.1-3.1,33.2,3.2,41.8c6.5,8.9,23.2,12.5,39.3,16.1l0.8,0.2c15.9,3.5,32.2,7.2,45,16.5c12.9,9.4,21.4,24,29.6,38
				c8.4,14.4,17,29.3,27.8,32.8l0,0l0,0c1.6,0.5,3.5,0.8,5.5,0.8c9.1,0,22.1-5.3,34.6-10.7l0.3-0.1c15.4-6.7,31.3-13.5,47.8-13.5
				c16.6,0,32.5,6.9,48,13.6c12.4,5.4,25.3,10.7,34.5,10.7c2,0,3.9-0.3,5.6-0.8l0,0l0,0c10.7-3.5,19.4-18.4,27.8-32.7
				c8.2-14.1,16.8-28.6,29.7-38c13-9.5,29.6-13.1,45.7-16.7c16.9-3.7,32.8-7.2,39.3-16.1c6.3-8.7,4.8-24.8,3.2-41.8v-0.2
				c-1.6-16.4-3.3-33.5,1.8-49c4.7-14.8,15.9-27.3,26.7-39.4l0.2-0.2c11.1-12.5,22.6-25.4,22.6-37.2c0-11.5-10.9-23.7-22.4-36.8
				l-0.4-0.4c-10.7-12-21.8-24.4-26.7-39.4c-4.9-15.2-3.4-32.1-1.9-48.4l0.1-0.6v-0.2c1.6-17.1,3.1-33.2-3.2-41.9
				c-6.5-9-23.2-12.6-39.3-16.1c-16.2-3.6-32.9-7.2-45.8-16.7c-12.9-9.4-21.4-24-29.6-38c-8.4-14.4-17.1-29.2-27.8-32.7
				c-1.7-0.6-3.6-0.8-5.7-0.8c-9,0-21.4,5.1-34.5,10.7C453.5,340.8,437.5,347.7,420.9,347.7 M338.6,288.4c-5.8,0-11.4,0.9-16.6,2.6
				c-23.3,7.6-35.9,29.3-47.2,48.3c-6.5,11.1-13.1,22.4-20,27.4c-7.1,5.1-20.1,8-32.8,10.8c-21.5,4.7-45.8,10.1-60,29.7
				c-14.1,19.4-11.7,44.1-9.7,65.9c1.3,13,2.6,26.5-0.3,34.9c-2.6,7.8-11.2,17.5-19.6,26.9c-14.8,16.7-31.6,35.6-31.6,60.4
				c0,24.9,16.8,43.7,31.6,60.3c8.4,9.4,17.1,19.1,19.6,27c2.8,8.5,1.5,21.9,0.3,34.9c-2,21.7-4.4,46.5,9.7,65.8
				c14.2,19.5,38.6,24.9,60,29.7c12.7,2.8,25.7,5.7,32.7,10.8c6.8,5,13.6,16.4,20.1,27.4c11.1,19.1,23.9,40.7,47.1,48.3
				c5.2,1.7,10.8,2.6,16.6,2.6c16.8,0,32.8-6.9,48.3-13.7c12.2-5.2,24.8-10.7,34.1-10.7s21.9,5.4,34.1,10.7
				c15.5,6.7,31.5,13.7,48.2,13.7c5.8,0,11.4-0.9,16.6-2.6c23.3-7.5,35.9-29.2,47.1-48.3c6.5-11.1,13.1-22.4,20.1-27.4
				c7-5.1,20.1-8.1,32.8-10.9c21.5-4.7,45.7-10,60-29.7c14.1-19.4,11.7-44.1,9.7-65.9c-1.3-13-2.6-26.5,0.3-34.9
				c2.6-7.6,11.2-17.3,19.6-26.7c14.8-16.7,31.6-35.6,31.6-60.4s-16.8-43.7-31.6-60.4c-8.4-9.4-17.1-19.1-19.6-26.9
				c-2.7-8.5-1.5-21.9-0.3-34.9c2-21.8,4.5-46.5-9.7-65.8c-14.2-19.5-38.6-24.9-60-29.7c-12.7-2.8-25.7-5.7-32.8-10.9
				c-6.8-5-13.6-16.4-20.1-27.4c-11.2-19.1-23.9-40.7-47.1-48.3c-5.2-1.7-10.8-2.6-16.6-2.6c-16.8,0-32.7,6.9-48.3,13.7
				c-12.1,5.2-24.7,10.7-34,10.7c-9.3,0-21.9-5.4-34.1-10.7C371.4,295.4,355.4,288.4,338.6,288.4L338.6,288.4z M420.9,352.8
				c17.6,0,34.1-7.2,50-14.1c11.8-5.1,24.3-10.3,32.4-10.3c1.5,0,2.9,0.2,4.1,0.6c8.8,2.9,17.1,16.9,25,30.4
				c8.5,14.6,17.4,29.7,31,39.6c13.8,10,31.1,13.9,47.7,17.5c15.2,3.3,30.9,6.8,36.3,14.1c5.2,7.2,3.6,23.1,2.2,38.6
				c-1.6,17.1-3.3,34.7,2,51.1c5.1,15.8,16.6,28.7,27.8,41.2c10.6,11.9,21.5,24.1,21.5,33.8c0,9.8-10.9,22.1-21.5,34
				c-11.1,12.5-22.6,25.4-27.8,41.2c-5.3,16.4-3.6,34-2,51.1c1.5,15.5,3,31.4-2.2,38.6c-5.3,7.4-21,10.8-36.3,14.1
				c-16.7,3.6-33.9,7.5-47.6,17.5c-13.7,9.9-22.5,25-31.1,39.6c-7.9,13.6-16.2,27.6-25,30.4c-1.2,0.4-2.5,0.5-4,0.5
				c-8.2,0-20.7-5.1-32.5-10.3c-15.9-6.9-32.4-14.1-50-14.1c-17.6,0-34.1,7.2-50,14c-11.8,5.1-24.4,10.3-32.5,10.3
				c-1.5,0-2.8-0.2-4-0.5c-8.8-2.9-17.1-16.9-25-30.5c-8.5-14.6-17.4-29.7-31-39.6c-13.8-10-31-13.8-47.6-17.5
				c-15.2-3.3-31-6.8-36.3-14.1c-5.2-7.2-3.6-23.1-2.2-38.4c1.6-17.1,3.3-34.7-2-51.1c-5.1-15.8-16.6-28.7-27.8-41.2
				c-10.6-11.7-21.5-24-21.5-33.6c0-9.7,10.9-21.9,21.5-33.8c11.1-12.5,22.6-25.4,27.8-41.2c5.3-16.4,3.6-34.1,2-51.2
				c-1.5-15.5-3-31.4,2.2-38.6c5.2-7.3,21-10.8,36.3-14.1c16.7-3.6,33.9-7.5,47.6-17.5c13.6-9.9,22.4-25,31-39.6
				c7.9-13.6,16.2-27.7,25-30.5c1.2-0.4,2.6-0.6,4.2-0.6c8.2,0,20.7,5.2,32.4,10.3C386.8,345.5,403.3,352.8,420.9,352.8L420.9,352.8
				z"/>
		</g>
	</g>
</g>
<rect x="100.9" y="352.8" fill="none" width="639.9" height="485.6"/>
<g enable-background="new    ">
	<path d="M411.8,425.9h-34.3c0,4.3-0.1,6.8-0.2,7.5c-0.6,3-2.2,4.5-4.9,4.5c-4.7,0-7-2.4-7-7.4V421c0-3.2,0.8-5.1,2.2-5.8
		c1.3-0.3,2.6-0.6,4-0.8c1.5-0.7,2.2-2.6,2.2-5.7v-19.1c0-5.6,1.5-9.6,4.5-12c2.7-2.2,7-3.3,12.7-3.3h18.7c3.1,0,5.1,1.1,6.3,3.2
		c0.8,1.5,1.2,3.8,1.2,7.1v30.1c4.3,0,6.5,2.2,6.5,6.5v9.4c0,4.9-2.3,7.4-7,7.4c-2.6,0-4.2-1.5-4.7-4.6
		C412,432.6,411.8,430.1,411.8,425.9z M386.3,414.7h16.2v-28.4h-11.3c-2.3,0-3.5,1.2-3.5,3.5v18.9
		C387.8,410.6,387.3,412.6,386.3,414.7z"/>
	<path d="M422.1,400.5c0-7.7,2.4-14.1,7.2-19.2c4.7-5.2,10.9-7.8,18.4-7.8c7.7,0,13.8,2.6,18.5,7.7c4.7,5.2,7,11.6,7,19.3
		c0,7.7-2.3,14-6.9,19.1c-4.8,5.2-11,7.9-18.5,7.9s-13.7-2.6-18.5-7.9C424.4,414.4,422.1,408,422.1,400.5z M437.7,400.3
		c0,3.5,0.8,6.4,2.3,9c1.9,3,4.4,4.5,7.7,4.5s5.8-1.5,7.7-4.5c1.5-2.6,2.3-5.6,2.3-9s-0.8-6.3-2.4-8.8c-1.9-2.9-4.4-4.3-7.5-4.3
		c-3.3,0-5.8,1.4-7.7,4.3C438.5,394,437.7,396.8,437.7,400.3z"/>
</g>
<g enable-background="new    ">
	<path d="M388.4,758.8c0-4.1,1.4-7.7,4.2-10.7c2.8-3,6.3-4.5,10.4-4.5c4.2,0,7.7,1.5,10.4,4.4c2.8,2.9,4.2,6.5,4.2,10.8
		c0,4.2-1.4,7.7-4.2,10.7c-2.8,3-6.3,4.5-10.4,4.5c-4.1,0-7.5-1.5-10.4-4.5C389.8,766.5,388.4,763,388.4,758.8z M403.6,814.1
		c-1.5,0-2.9-0.5-3.9-1.6c-1.1-1.1-1.6-2.4-1.6-3.9c0-1.5,0.8-3.6,2.3-6.3l30.8-53.8c2-3.5,4.3-5.3,6.7-5.3c3.8,0,5.7,1.6,5.7,4.7
		c0,1.6-0.6,3.5-1.9,5.7l-31.5,55.2C408.2,812.3,406,814.1,403.6,814.1z M398.1,758.8c0,1.3,0.5,2.5,1.5,3.5c1,1,2.1,1.5,3.4,1.5
		c1.3,0,2.6-0.5,3.5-1.5c1-1,1.5-2.2,1.5-3.5c0-1.4-0.5-2.6-1.5-3.6c-1-1-2.2-1.5-3.6-1.5c-1.3,0-2.5,0.5-3.5,1.5
		C398.6,756.3,398.1,757.4,398.1,758.8z M424.1,798.1c0-4.1,1.4-7.7,4.2-10.7c2.8-3,6.3-4.5,10.4-4.5c4.2,0,7.7,1.5,10.4,4.4
		c2.8,2.9,4.2,6.5,4.2,10.7c0,4.2-1.4,7.7-4.2,10.7c-2.8,3-6.3,4.5-10.4,4.5c-4.1,0-7.5-1.5-10.4-4.5
		C425.5,805.9,424.1,802.3,424.1,798.1z M433.9,798.1c0,1.3,0.5,2.4,1.5,3.5s2.1,1.5,3.4,1.5c1.4,0,2.6-0.4,3.5-1.4
		c1-1,1.4-2.1,1.4-3.6c0-1.5-0.4-2.7-1.3-3.6c-0.9-0.9-2.1-1.4-3.6-1.4c-1.3,0-2.5,0.5-3.5,1.5C434.3,795.6,433.9,796.8,433.9,798.1
		z"/>
</g>
<g>
	<path d="M390.2,663.2v26.7c0,18.9-8.6,28.3-25.9,28.3c-15.1,0-22.7-10-22.7-29.9v-25.1h-69.4c-9.4,0-17.3-2.5-23.7-7.5
		c-6.4-5-9.6-12.1-9.6-21.3c0-12.4,5.3-27.1,16-44.2l54.1-86.1c10.7-16.9,23.9-25.3,39.7-25.3c14.5,0,25.4,5.7,32.6,17
		c6,9.4,9,21.7,9,36.8v85.4c17.1,0,25.6,7.6,25.6,22.7C415.8,655.7,407.3,663.2,390.2,663.2z M286.5,618.1h55.1v-88.9L286.5,618.1z"
		/>
	<path d="M427,599.2c0-34.6,6.4-62.6,19.2-84.2c15.8-26.4,39.9-39.7,72.3-39.7c32.6,0,56.8,13.1,72.6,39.4
		c13,21.5,19.5,49.7,19.5,84.5c0,34.8-6.5,62.8-19.5,84.2c-15.8,26.2-40,39.4-72.6,39.4c-32.2,0-56.2-13.1-72-39.4
		C433.5,661.8,427,633.8,427,599.2z M518.9,524.3c-15.1,0-26,9.2-32.6,27.6c-4.5,12.6-6.7,28.2-6.7,46.8c0,18.8,2.2,34.5,6.7,47.1
		c6.4,18.6,17.3,27.9,32.6,27.9c15.4,0,26.2-9.3,32.6-27.9c4.5-12.6,6.7-28.3,6.7-47.1C558.2,549.1,545.1,524.3,518.9,524.3z"/>
</g>
</svg>
