<?xml version="1.0" encoding="utf-8"?>
<!-- Generator: Adobe Illustrator 17.1.0, SVG Export Plug-In . SVG Version: 6.00 Build 0)  -->
<!DOCTYPE svg PUBLIC "-//W3C//DTD SVG 1.1//EN" "http://www.w3.org/Graphics/SVG/1.1/DTD/svg11.dtd">
<svg version="1.1" id="Layer_1" xmlns="http://www.w3.org/2000/svg" xmlns:xlink="http://www.w3.org/1999/xlink" x="0px" y="0px"
	 viewBox="214.5 14.5 1010.9 969.8" enable-background="new 214.5 14.5 1010.9 969.8" xml:space="preserve">
<g>
	<g>
		<g>
			<path d="M848.6,975.3c-25,0-49.3-10.5-72.8-20.6l-1.8-0.8c-19.1-8.2-38.9-16.8-54.1-16.8c-15.3,0-35.3,8.6-54.6,16.9l-0.4,0.2
				c-23.8,10.3-48.3,21-73.9,21c-8.5,0-16.8-1.3-24.6-3.8c-35.2-11.5-54.5-44.6-71.5-73.8l-0.5-0.8c-10.2-17.3-20.7-35.2-32-43.3
				c-11.5-8.5-32.3-13.1-52.3-17.5l-0.4-0.1c-32.9-7.2-70.2-15.4-91.6-44.8c-21.1-29-17.5-66.8-14.4-100.2c2-20.6,4.1-42-0.6-56.3
				c-4.2-13.2-18.1-28.7-31.5-43.6c-22.7-25.4-48.4-54.3-48.4-91.7c0-37.3,25.6-66.2,48.3-91.6l0.1-0.2c13.4-15,27.2-30.5,31.5-43.5
				c4.7-14.2,2.5-36.5,0.6-56.2l0-0.4c-3.2-33.2-6.7-70.9,14.4-99.9c21.4-29.4,58.6-37.6,91.4-44.8l0.4-0.1c20-4.4,40.8-9,52.4-17.5
				c11.4-8.3,22.1-26.5,32.4-44.2l0.5-0.9c17.1-28.9,36.4-61.6,71-72.9c7.8-2.5,16.1-3.8,24.7-3.8c25.6,0,50.1,10.7,73.9,21
				c19.4,8.4,39.4,17.1,54.9,17.1c15.6,0,36.4-9,54.8-17c23.9-10.3,48.5-21,73.9-21c8.6,0,16.9,1.3,24.7,3.8
				c34.8,11.4,54.2,44.4,71.3,73.5l0.2,0.4c10.3,17.6,21,35.8,32.4,44.1c11.7,8.6,32.4,13.2,52.4,17.6l0.3,0.1
				c32.9,7.2,70.1,15.5,91.4,44.8c21.1,28.9,17.6,66.5,14.4,99.8l-0.1,0.9c-1.9,20.5-3.9,41.7,0.6,55.7
				c4.3,13.1,18.1,28.6,31.5,43.6l0.1,0.2c22.6,25.5,48.3,54.3,48.3,91.6c0,37.3-25.6,66.2-48.3,91.6l-0.1,0.2
				c-13.4,15-27.2,30.4-31.5,43.2c-4.7,14.2-2.5,36.6-0.6,56.3l0,0.4c3.2,33.2,6.7,70.9-14.4,99.9c-21.4,29.4-58.6,37.6-91.3,44.8
				l-0.1,0c-20.1,4.4-40.9,9-52.8,17.7c-11.5,8.3-22.2,26.5-32.5,44.2l-0.2,0.4c-17,29.1-36.4,62.1-71.2,73.4
				C865.6,974,857.2,975.3,848.6,975.3z M720.1,882.8c26.8,0,52.1,11,76.6,21.7c19,8.3,38.8,16.4,52.4,16.4c2.8,0,5.3-0.3,7.5-1
				c15.3-5,28.5-27.6,41.3-49.4c13.1-22.4,26.6-45.5,47.5-60.7c21-15.3,47.4-21.1,73-26.7c24.5-5.4,49.8-10.9,59.1-23.7
				c9-12.3,6.7-36.8,4.2-62.7l0-0.3c-2.6-26.2-5.2-53.2,2.9-78.2c7.7-24,25.4-43.8,42.5-63l0.3-0.3c16.9-19,34.3-38.7,34.3-55.4
				c0-16.4-17.3-35.9-34.1-54.8l-0.6-0.7c-17.1-19.1-34.7-38.9-42.6-63c-8-24.6-5.5-51.4-3-77.3l0.1-1.2c2.5-25.9,4.8-50.4-4.2-62.7
				c-9.4-12.7-34.6-18.3-59.1-23.7c-25.7-5.6-52.2-11.5-73.1-26.7c-20.8-15.2-34.3-38.3-47.4-60.7C885,106.6,871.8,84,856.6,79.1
				c-2.2-0.7-4.8-1.1-7.6-1.1c-13.2,0-32.3,7.8-52.3,16.5c-24.5,10.7-49.8,21.7-76.6,21.7c-26.3,0-51.4-10.8-75.6-21.2l-1-0.4
				C623.5,85.8,604.5,78,591.2,78c-2.9,0-5.5,0.4-7.7,1.1c-15.3,5-28.5,27.6-41.3,49.5c-13.1,22.4-26.6,45.5-47.4,60.7
				c-20.9,15.3-47.4,21.1-73,26.7c-24.6,5.4-50,10.9-59.2,23.7c-9,12.3-6.7,36.8-4.2,62.7l0,0.3c2.6,26.2,5.2,53.3-2.9,78.3
				c-7.7,23.8-25.3,43.6-42.3,62.8l-0.2,0.2c-17,19.1-34.7,38.8-34.7,55.5c0,16.9,18.4,37.3,34.7,55.3
				c17.1,19.2,34.7,39.1,42.5,63.1c8.1,24.7,5.5,51.9,3.1,78.1l0,0.3c-2.4,24.7-4.8,50.3,4.2,62.7c9.3,12.7,34.7,18.3,59.2,23.7
				l1.3,0.3c25.2,5.6,51.2,11.5,71.8,26.5c20.8,15.2,34.3,38.3,47.4,60.7c12.1,20.8,25.8,44.5,41.3,49.5c2.2,0.7,4.7,1,7.4,1
				c13.6,0,33.4-8.1,52.5-16.4l0.4-0.2C668.3,893.7,693.5,882.8,720.1,882.8z"/>
			<path fill="#FFFFFF" d="M591.3,27.5c24.7,0,48.9,10.5,72.3,20.7c19.8,8.6,40.2,17.4,56.5,17.4c16.4,0,37.6-9.2,56.3-17.3
				c23.5-10.2,47.8-20.7,72.3-20.7c8.2,0,16.1,1.2,23.5,3.6c33.4,10.9,52.4,43.2,69.1,71.7l0.2,0.3l0.1,0.1
				c10.5,17.9,21.4,36.5,33.5,45.2c12.3,9.1,33.5,13.8,54,18.3l0.4,0.1c32.2,7.1,68.6,15.1,89.1,43.3c20.2,27.7,16.7,64.5,13.6,97
				l0,0.4l0,0.5c-1.9,20.9-3.9,42.5,0.8,57.3c4.5,13.9,18.6,29.7,32.3,45l0.1,0.2c22.1,24.9,47.2,53.2,47.2,89
				c0,35.8-25.1,64-47.2,89l-0.1,0.1c-13.6,15.3-27.8,31.1-32.3,44.6c-5,15-2.8,36.8-0.8,57.9l0,0.4c3.1,32.5,6.6,69.4-13.7,97.1
				c-20.5,28.2-56.9,36.2-89,43.3l-0.1,0c-20.5,4.5-41.7,9.2-54.2,18.3c-12.2,8.8-23.1,27.4-33.6,45.4l-0.2,0.4
				c-8.7,14.8-17.7,30.2-28.8,43.2c-12.3,14.3-25.4,23.6-40.2,28.4c-7.4,2.4-15.3,3.6-23.5,3.6c-24.2,0-48.1-10.3-71.2-20.3l-1-0.4
				l-0.8-0.3c-19.5-8.4-39.6-17.1-55.7-17.1c-16.2,0-36.5,8.8-56.2,17.3l-0.4,0.2c-23.4,10.2-47.6,20.7-72.3,20.7
				c-8.1,0-16-1.2-23.4-3.6c-33.8-11-52.6-43.4-69.3-72l0,0l0,0l-0.5-0.8c-10.4-17.6-21.2-35.9-33.1-44.5
				c-12.2-9-33.4-13.6-53.8-18.2l-0.4-0.1c-32.2-7.1-68.7-15.1-89.2-43.3C301.3,761,304.9,724,308,691.4c2.1-21,4.2-42.8-0.8-57.9
				c-4.5-14-18.6-29.8-32.3-45.1c-22.2-24.9-47.4-53.1-47.4-89c0-35.8,25.1-64,47.2-89l0.1-0.1c13.7-15.3,27.8-31.1,32.3-44.9
				c5-15,2.8-36.8,0.8-57.9l0-0.4c-3.1-32.5-6.6-69.4,13.7-97.1c20.5-28.2,56.9-36.2,89.1-43.3l0.4-0.1c20.4-4.5,41.6-9.2,53.9-18.2
				c12.1-8.8,23-27.4,33.5-45.3l0.6-0.9c8.7-14.7,17.7-29.9,28.8-42.9c12.2-14.2,25.3-23.5,40-28.2
				C575.2,28.7,583.1,27.5,591.3,27.5 M720,112.1c-25.5,0-50.2-10.6-74-20.9l-1-0.4C624.7,81.9,605.3,74,591.2,74
				c-3.3,0-6.3,0.4-8.9,1.3c-16.8,5.5-30.4,28.8-43.5,51.3c-12.9,22-26.2,44.8-46.3,59.5c-20.3,14.8-46.3,20.5-71.5,26.1
				c-25.3,5.5-51.4,11.2-61.6,25.2c-9.9,13.6-7.5,38.8-5,65.4l0,0.3c2.5,25.8,5.1,52.4-2.8,76.7c-7.5,23-24.8,42.5-41.5,61.3
				l-0.2,0.2c-17.6,19.7-35.7,40-35.7,58.2c0,18.4,18.1,38.5,35.7,58c16.8,18.9,34.2,38.5,41.7,61.7c7.8,23.9,5.3,50.7,2.9,76.5
				l0,0.1l0,0.2c-2.5,26.7-4.9,51.9,5,65.4c10.2,13.9,36.3,19.6,61.5,25.2l1.3,0.3c24.8,5.5,50.4,11.3,70.3,25.8
				c20.1,14.7,33.4,37.5,46.3,59.5c13.1,22.5,26.6,45.8,43.5,51.3l0,0l0,0c2.5,0.8,5.4,1.2,8.6,1.2c14.3,0,34.6-8.3,54.1-16.7
				l0.4-0.2c24.1-10.4,48.9-21.1,74.7-21.1c26,0,50.9,10.8,75,21.3c19.4,8.5,39.6,16.7,54,16.7c3.2,0,6.1-0.4,8.7-1.2l0,0l0,0
				c16.7-5.4,30.3-28.7,43.5-51.2c12.9-22,26.2-44.8,46.4-59.5c20.3-14.8,46.3-20.5,71.5-26.1c26.4-5.8,51.3-11.3,61.5-25.2
				c9.9-13.6,7.5-38.8,5-65.4l0-0.3c-2.5-25.7-5.1-52.4,2.8-76.6c7.4-23.1,24.9-42.7,41.7-61.6l0.3-0.3
				c17.4-19.6,35.3-39.8,35.3-58.1c0-18-17-37.1-35.1-57.5l-0.6-0.7c-16.8-18.8-34.1-38.2-41.7-61.6c-7.7-23.8-5.3-50.2-2.9-75.7
				l0.1-0.9l0-0.3c2.5-26.7,4.9-51.9-5-65.5c-10.2-14-36.3-19.7-61.4-25.2c-25.3-5.6-51.4-11.3-71.6-26.1
				c-20.1-14.7-33.4-37.5-46.3-59.5c-13.2-22.5-26.8-45.7-43.5-51.2c-2.6-0.9-5.6-1.3-8.9-1.3c-14,0-33.5,7.9-53.9,16.8
				C770.9,101.3,746,112.1,720,112.1 M591.3,19.5c-9.1,0-17.8,1.4-26,4c-36.5,11.9-56.2,45.8-73.8,75.6
				c-10.1,17.3-20.5,35.1-31.3,42.9c-11.1,8-31.5,12.5-51.3,16.9c-33.6,7.4-71.6,15.8-93.8,46.4c-22.1,30.3-18.3,68.9-15.1,103
				c2,20.3,4,41.4-0.4,54.6c-4,12.2-17.5,27.4-30.6,42.1c-23.1,26.1-49.4,55.6-49.4,94.4c0,38.9,26.3,68.4,49.4,94.3
				c13.1,14.7,26.7,29.9,30.6,42.2c4.4,13.3,2.4,34.3,0.4,54.6c-3.2,34-6.9,72.7,15.1,102.9c22.2,30.5,60.3,39,93.9,46.4
				c19.8,4.4,40.2,8.9,51.2,16.9c10.7,7.8,21.2,25.6,31.4,42.9c17.4,29.9,37.3,63.7,73.7,75.6c8.1,2.6,16.9,4,25.9,4
				c26.2,0,51.3-10.8,75.5-21.4c19.1-8.2,38.8-16.8,53.4-16.8s34.2,8.5,53.3,16.8c24.2,10.4,49.2,21.4,75.4,21.4
				c9.1,0,17.8-1.4,26-4c36.5-11.8,56.2-45.7,73.7-75.6c10.1-17.3,20.5-35.1,31.4-42.9c11-8,31.5-12.6,51.3-17
				c33.6-7.4,71.5-15.7,93.8-46.4c22.1-30.3,18.3-68.9,15.1-103c-2-20.3-4-41.4,0.4-54.6c4-11.9,17.5-27.1,30.6-41.8
				c23.1-26.1,49.4-55.6,49.4-94.4s-26.3-68.4-49.4-94.4c-13.1-14.7-26.7-29.9-30.6-42.1c-4.3-13.3-2.3-34.3-0.4-54.6
				c3.2-34.1,7-72.7-15.1-102.9c-22.2-30.5-60.3-39-93.8-46.4c-19.8-4.4-40.2-8.9-51.3-17c-10.7-7.8-21.3-25.7-31.4-42.9
				c-17.5-29.8-37.3-63.7-73.7-75.6c-8.1-2.6-16.9-4-26-4c-26.2,0-51.2,10.8-75.5,21.4c-19,8.2-38.7,16.7-53.2,16.7
				c-14.6,0-34.3-8.5-53.3-16.8C642.5,30.3,617.5,19.5,591.3,19.5L591.3,19.5z M720,120.1c27.5,0,53.3-11.2,78.2-22
				c18.4-8,38-16.1,50.7-16.1c2.4,0,4.5,0.3,6.4,0.9c13.8,4.5,26.7,26.5,39.1,47.6c13.3,22.8,27.2,46.4,48.5,61.9
				c21.6,15.7,48.6,21.7,74.6,27.4c23.8,5.2,48.4,10.7,56.7,22.1c8.1,11.2,5.7,36.1,3.4,60.3c-2.5,26.7-5.2,54.2,3.1,79.9
				c8,24.7,26,44.9,43.4,64.4c16.5,18.6,33.7,37.7,33.7,52.9c0,15.3-17.1,34.5-33.6,53.1c-17.4,19.5-35.4,39.7-43.4,64.4
				c-8.3,25.6-5.7,53.2-3.1,79.9c2.3,24.2,4.7,49.1-3.4,60.3c-8.3,11.5-32.9,16.9-56.7,22.1c-26.1,5.7-53,11.7-74.5,27.4
				c-21.4,15.5-35.2,39.1-48.6,61.9c-12.4,21.2-25.3,43.2-39.1,47.6c-1.8,0.6-3.9,0.8-6.3,0.8c-12.8,0-32.4-8-50.8-16.1
				c-24.9-10.8-50.7-22-78.2-22s-53.3,11.2-78.2,21.9c-18.5,8-38.2,16.1-50.9,16.1c-2.3,0-4.4-0.3-6.2-0.8
				c-13.8-4.5-26.7-26.4-39.1-47.7c-13.3-22.8-27.2-46.4-48.5-61.9c-21.6-15.7-48.5-21.6-74.5-27.4c-23.8-5.2-48.5-10.7-56.8-22.1
				c-8.1-11.2-5.7-36.1-3.4-60.1c2.5-26.7,5.1-54.3-3.2-79.9c-8-24.7-26-44.9-43.4-64.5c-16.6-18.3-33.7-37.5-33.7-52.6
				c0-15.1,17.1-34.3,33.7-52.9c17.4-19.6,35.3-39.7,43.4-64.4c8.3-25.6,5.7-53.3,3.1-80c-2.3-24.2-4.7-49.1,3.4-60.3
				c8.2-11.4,32.9-16.9,56.8-22.1c26.1-5.7,53-11.7,74.5-27.4c21.3-15.5,35.1-39.1,48.5-61.9c12.4-21.3,25.3-43.3,39.1-47.7
				c1.9-0.6,4.1-0.9,6.5-0.9c12.8,0,32.3,8.1,50.7,16.1C666.7,108.8,692.5,120.1,720,120.1L720,120.1z"/>
		</g>
	</g>
</g>
<rect x="219.6" y="120.2" fill="none" width="1000.8" height="759.4"/>
<g enable-background="new    ">
	<path d="M705.8,234.5h-53.7c0,6.8-0.1,10.7-0.3,11.8c-0.9,4.7-3.4,7-7.6,7c-7.3,0-10.9-3.8-10.9-11.5v-15c0-5,1.2-8,3.5-9
		c2-0.5,4.1-0.9,6.3-1.3c2.3-1.1,3.5-4,3.5-8.9v-29.8c0-8.8,2.3-15,7-18.8c4.3-3.4,10.9-5.1,19.8-5.1h29.3c4.8,0,8,1.7,9.8,5
		c1.3,2.3,1.9,6,1.9,11.1V217c6.8,0,10.2,3.4,10.2,10.1v14.7c0,7.7-3.6,11.5-10.9,11.5c-4.1,0-6.6-2.4-7.4-7.2
		C706,244.9,705.8,241,705.8,234.5z M665.9,217h25.4v-44.4h-17.6c-3.6,0-5.4,1.8-5.4,5.4v29.5C668.2,210.5,667.4,213.7,665.9,217z"
		/>
	<path d="M721.9,194.7c0-12,3.7-22,11.2-30.1c7.4-8.1,17.1-12.2,28.8-12.2c12,0,21.6,4,28.9,12.1c7.3,8.1,10.9,18.1,10.9,30.2
		c0,12-3.6,21.9-10.8,29.9c-7.5,8.2-17.2,12.3-29,12.3c-11.8,0-21.5-4.1-29-12.4C725.5,216.5,721.9,206.5,721.9,194.7z M746.3,194.4
		c0,5.4,1.2,10,3.6,14c2.9,4.7,6.9,7,12,7c5.1,0,9-2.3,12-7c2.4-4,3.6-8.7,3.6-14c0-5.3-1.3-9.8-3.8-13.7c-2.9-4.5-6.9-6.7-11.8-6.7
		c-5.1,0-9,2.2-12,6.7C747.5,184.5,746.3,189,746.3,194.4z"/>
</g>
<g enable-background="new    ">
	<path d="M559.9,438.1c13-3,24.9-4.5,35.5-4.5c33,0,59.9,12.2,80.6,36.5c19.7,23,29.5,51.2,29.5,84.6c0,40-13.1,73.2-39.3,99.6
		c-26.2,26.4-59.3,39.5-99.3,39.5c-15.7,0-30.9-2.2-45.5-6.5c-18-5.3-33.5-13.2-46.5-23.5c-16.3-12.7-24.5-27-24.5-43
		c0-10.3,3.3-19.1,9.8-26.3c6.5-7.2,14.8-10.8,24.8-10.8c7.7,0,19.9,5.2,36.8,15.5c16.8,10.3,31.6,15.5,44.3,15.5
		c15,0,27.4-5.4,37.3-16.3c9.8-10.8,14.8-23.8,14.8-38.8c0-15.3-3.9-27.8-11.8-37.3c-7.8-9.5-19.3-14.3-34.3-14.3
		c-7.7,0-18,2.2-31,6.5c-13,4.3-23.2,6.5-30.5,6.5c-21.4,0-32-12-32-36c0-5.7,0.8-15.2,2.5-28.5l12-95.1c2.3-18,7.5-30,15.5-36
		c7-5.3,19.8-8,38.5-8h101.6c35.4,0,53,12.8,53,38.5c0,25.4-16.7,38-50,38h-86.1L559.9,438.1z"/>
</g>
<g enable-background="new    ">
	<path d="M718,500.6c0-54,10-97.9,30-131.6c24.7-41.4,62.4-62,113.1-62c51,0,88.9,20.5,113.6,61.5c20.3,33.7,30.5,77.7,30.5,132.1
		c0,54.4-10.2,98.2-30.5,131.6c-24.7,41-62.5,61.5-113.6,61.5c-50.4,0-87.9-20.5-112.6-61.5C728.1,598.5,718,554.7,718,500.6z
		 M861.6,383.6c-23.7,0-40.7,14.4-51,43.1c-7,19.7-10.5,44.1-10.5,73.2c0,29.4,3.5,54,10.5,73.7c10,29.1,27,43.6,51,43.6
		s41-14.5,51-43.6c7-19.7,10.5-44.3,10.5-73.7C923.1,422.3,902.6,383.6,861.6,383.6z"/>
</g>
<g enable-background="new    ">
	<path d="M669.1,755.1c0-6.4,2.2-12,6.6-16.7c4.4-4.7,9.9-7.1,16.3-7.1c6.5,0,12,2.3,16.3,6.9c4.4,4.6,6.6,10.2,6.6,16.9
		c0,6.5-2.2,12.1-6.6,16.8c-4.4,4.7-9.8,7-16.3,7c-6.4,0-11.8-2.3-16.3-7C671.3,767.2,669.1,761.6,669.1,755.1z M693,841.6
		c-2.4,0-4.5-0.8-6.1-2.5c-1.7-1.7-2.5-3.7-2.5-6.1c0-2.3,1.2-5.6,3.6-9.9l48.2-84.2c3.2-5.5,6.7-8.3,10.5-8.3
		c5.9,0,8.9,2.5,8.9,7.4c0,2.5-1,5.5-3,8.9l-49.3,86.3C700.1,838.8,696.7,841.6,693,841.6z M684.4,755.1c0,2,0.8,3.9,2.3,5.5
		c1.5,1.6,3.3,2.4,5.3,2.4c2.1,0,4-0.8,5.5-2.3c1.6-1.6,2.3-3.4,2.3-5.5c0-2.2-0.8-4.1-2.3-5.6c-1.5-1.5-3.4-2.3-5.6-2.3
		c-2.1,0-3.9,0.8-5.4,2.3C685.1,751.1,684.4,752.9,684.4,755.1z M725,816.6c0-6.4,2.2-12,6.6-16.7c4.4-4.7,9.9-7.1,16.3-7.1
		c6.5,0,12,2.3,16.3,6.9c4.4,4.6,6.6,10.2,6.6,16.8c0,6.5-2.2,12.1-6.6,16.7c-4.4,4.7-9.8,7-16.3,7c-6.4,0-11.8-2.3-16.3-7
		C727.2,828.7,725,823.1,725,816.6z M740.3,816.6c0,2,0.8,3.8,2.3,5.4c1.5,1.6,3.3,2.4,5.3,2.4c2.2,0,4.1-0.7,5.5-2.2
		c1.5-1.5,2.2-3.3,2.2-5.6c0-2.3-0.7-4.2-2.1-5.6c-1.4-1.4-3.3-2.2-5.6-2.2c-2.1,0-3.9,0.8-5.4,2.3
		C741,812.6,740.3,814.5,740.3,816.6z"/>
</g>
</svg>
