<?xml version="1.0" encoding="utf-8"?>
<!-- Generator: Adobe Illustrator 17.1.0, SVG Export Plug-In . SVG Version: 6.00 Build 0)  -->
<!DOCTYPE svg PUBLIC "-//W3C//DTD SVG 1.1//EN" "http://www.w3.org/Graphics/SVG/1.1/DTD/svg11.dtd">
<svg version="1.1" id="Capa_1" xmlns="http://www.w3.org/2000/svg" xmlns:xlink="http://www.w3.org/1999/xlink" x="0px" y="0px"
	 viewBox="120 0 960 960" enable-background="new 120 0 960 960" xml:space="preserve">
<g>
	<g>
		<path d="M600,250.4c-5.7,0-11.4-2.3-15.4-6.4c-4.1-4.1-6.4-9.7-6.4-15.4c0-5.8,2.3-11.4,6.4-15.4c4-4,9.7-6.4,15.4-6.4
			c5.8,0,11.4,2.3,15.4,6.4c4.1,4.1,6.4,9.7,6.4,15.4c0,5.7-2.3,11.3-6.4,15.4C611.4,248,605.7,250.4,600,250.4z"/>
	</g>
</g>
<g>
	<path d="M812.3,294c-5.8,0-11.4-2.3-15.4-6.4c-4-4-6.4-9.7-6.4-15.4c0-5.8,2.3-11.4,6.4-15.4c4.1-4.1,9.7-6.4,15.4-6.4
		c5.7,0,11.3,2.3,15.4,6.4c4.1,4,6.4,9.7,6.4,15.4c0,5.7-2.3,11.4-6.4,15.4C823.7,291.7,818.1,294,812.3,294z"/>
</g>
<g>
	<path d="M384.1,277.4c-5.8,0-11.4-2.3-15.4-6.4c-4-4-6.4-9.7-6.4-15.4c0-5.8,2.3-11.4,6.4-15.4c4.1-4.1,9.7-6.4,15.4-6.4
		c5.7,0,11.3,2.3,15.4,6.4c4,4,6.4,9.7,6.4,15.4c0,5.7-2.4,11.4-6.4,15.4C395.4,275,389.8,277.4,384.1,277.4z"/>
</g>
<path d="M1026.8,678.1c8-12.8,12.6-27.9,12.6-44c0-22.1-8.6-42.1-22.6-57.1c11.5-11.1,18.7-26.7,18.7-43.9
	c0-12.5-3.8-24.1-10.3-33.8c32.8-19.9,54.8-56,54.8-97.1c0-81.4-51.4-157.1-144.8-213.1c-89.9-53.9-208.9-83.6-335.2-83.6
	c-126.3,0-245.3,29.7-335.2,83.6C171.4,245.1,120,320.8,120,402.1c0,41.1,22,77.2,54.8,97.1c-6.5,9.7-10.3,21.3-10.3,33.8
	c0,17.2,7.2,32.8,18.7,43.9c-14,15-22.6,35-22.6,57.1c0,16.2,4.6,31.2,12.6,44c-26.1,6.7-53.2,24.6-53.2,71.8
	c0,57.7,41.8,104.6,93.1,104.6h773.9c51.3,0,93.1-46.9,93.1-104.6C1080,702.7,1052.8,684.9,1026.8,678.1z M163.6,402.1
	c0-65.5,43.9-127.9,123.6-175.7c83.2-49.9,194.3-77.4,312.8-77.4s229.6,27.5,312.8,77.4c79.7,47.8,123.6,110.2,123.6,175.7
	c0,38.5-31.3,69.8-69.8,69.8H233.5C195,472,163.6,440.6,163.6,402.1z M225.6,550.5c-9.6,0-17.5-7.8-17.5-17.5
	c0-9.6,7.8-17.5,17.5-17.5h748.8c9.6,0,17.5,7.8,17.5,17.5s-7.8,17.5-17.5,17.5H225.6z M244.2,594.2h119.5
	c17.4,4.5,122.5,33.1,211.2,79.9H244.2c-22,0-39.9-17.9-39.9-39.9C204.2,612.1,222.2,594.2,244.2,594.2z M504,594.2h331.7
	c-63.5,38.8-113.6,87.1-138.4,113.1C649.1,658.6,571.5,620.6,504,594.2z M935.2,594.2h20.6c22,0,39.9,17.9,39.9,39.9
	c0,22-17.9,39.9-39.9,39.9H798.4C836.2,643.7,883.9,612.2,935.2,594.2z M986.9,810.9H213.1c-27.3,0-49.4-27.3-49.4-61
	c0-19.5,3.4-32.3,49.4-32.3h430.5c14.2,11.2,26.5,23.1,36.3,35.7c4,5.2,10.2,8.3,16.7,8.4c0.2,0,0.3,0,0.5,0
	c6.4,0,12.5-2.8,16.6-7.7c0.4-0.4,13.2-15.4,35.1-36.4h238.2c46,0,49.4,12.8,49.4,32.3C1036.4,783.6,1014.2,810.9,986.9,810.9z"/>
<g>
	<g>
		<path d="M251,381.3c-5.7,0-11.4-2.3-15.4-6.4c-4.1-4.1-6.4-9.7-6.4-15.4c0-5.8,2.3-11.4,6.4-15.4c4-4,9.7-6.4,15.4-6.4
			s11.4,2.3,15.4,6.4c4.1,4.1,6.4,9.7,6.4,15.4c0,5.7-2.3,11.3-6.4,15.4C262.4,378.9,256.7,381.3,251,381.3z"/>
	</g>
</g>
<g>
	<g>
		<path d="M951,372.3c-5.7,0-11.4-2.3-15.4-6.4c-4.1-4.1-6.4-9.7-6.4-15.4c0-5.8,2.3-11.4,6.4-15.4c4-4,9.7-6.4,15.4-6.4
			c5.8,0,11.4,2.3,15.4,6.4c4.1,4.1,6.4,9.7,6.4,15.4c0,5.7-2.3,11.3-6.4,15.4C962.4,369.9,956.7,372.3,951,372.3z"/>
	</g>
</g>
<g>
	<g>
		<path d="M488.2,372.3c-5.7,0-11.4-2.3-15.4-6.4c-4.1-4.1-6.4-9.7-6.4-15.4c0-5.8,2.3-11.4,6.4-15.4c4-4,9.7-6.4,15.4-6.4
			c5.8,0,11.4,2.3,15.4,6.4c4.1,4.1,6.4,9.7,6.4,15.4c0,5.7-2.3,11.3-6.4,15.4C499.6,369.9,493.9,372.3,488.2,372.3z"/>
	</g>
</g>
<g>
	<g>
		<path d="M707.8,372.3c-5.7,0-11.4-2.3-15.4-6.4c-4.1-4.1-6.4-9.7-6.4-15.4c0-5.8,2.3-11.4,6.4-15.4c4-4,9.7-6.4,15.4-6.4
			c5.8,0,11.4,2.3,15.4,6.4c4.1,4.1,6.4,9.7,6.4,15.4c0,5.7-2.3,11.3-6.4,15.4C719.2,369.9,713.5,372.3,707.8,372.3z"/>
	</g>
</g>
</svg>
