<?xml version="1.0" encoding="utf-8"?>
<!-- Generator: Adobe Illustrator 17.1.0, SVG Export Plug-In . SVG Version: 6.00 Build 0)  -->
<!DOCTYPE svg PUBLIC "-//W3C//DTD SVG 1.1//EN" "http://www.w3.org/Graphics/SVG/1.1/DTD/svg11.dtd">
<svg version="1.1" id="Layer_1" xmlns="http://www.w3.org/2000/svg" xmlns:xlink="http://www.w3.org/1999/xlink" x="0px" y="0px"
	 viewBox="0 0 512 512" enable-background="new 0 0 512 512" xml:space="preserve">
<g>
	<g>
		<path fill="#58585A" d="M460.8,128h-90.2c7.6-2.8,14.2-5.7,19.1-8.6c30.6-17.7,41.1-56.8,23.4-87.4c-11.9-20.5-33.4-32-55.5-32
			c-10.9,0-21.9,2.8-31.9,8.6c-19.1,11-52,42.9-69.7,72.8c-17.7-29.8-50.6-61.7-69.7-72.8C176.2,2.8,165.2,0,154.4,0
			c-22.1,0-43.6,11.5-55.5,32c-17.7,30.6-7.2,69.8,23.4,87.4c4.9,2.8,11.5,5.8,19.1,8.6H51.2c-14.1,0-25.6,11.5-25.6,25.6v76.8
			c0,14.1,11.5,25.6,25.6,25.6v230.4c0,14.1,11.5,25.6,25.6,25.6h128h102.4h128c14.1,0,25.6-11.5,25.6-25.6V256
			c14.1,0,25.6-11.5,25.6-25.6v-76.8C486.4,139.5,474.9,128,460.8,128z M338.5,30.8c5.8-3.4,12.5-5.2,19.1-5.2
			c13.7,0,26.5,7.4,33.3,19.2c10.6,18.3,4.3,41.9-14.1,52.5c-14.5,8.4-55.5,20.6-86.8,20.6c-11.7,0-18.1-1.8-20.7-3
			C269.7,97.4,311.1,46.6,338.5,30.8z M179.2,486.4H76.8V256h102.4L179.2,486.4L179.2,486.4z M179.2,230.4H76.8H51.2v-76.8h128
			V230.4z M135.1,97.3c-18.3-10.6-24.6-34.1-14.1-52.5c6.8-11.8,19.6-19.2,33.3-19.2c6.7,0,13.3,1.8,19.1,5.2
			c27.4,15.8,68.8,66.7,69.1,84.1c-2.6,1.2-9,3-20.7,3C190.6,117.8,149.6,105.6,135.1,97.3z M307.2,486.4H204.8V153.6h102.4V486.4z
			 M435.2,486.4H332.8V256h102.4L435.2,486.4L435.2,486.4z M460.8,230.4h-25.6H332.8v-76.8h128V230.4z"/>
	</g>
</g>
</svg>
