<?xml version="1.0" encoding="utf-8"?>
<!-- Generator: Adobe Illustrator 17.1.0, SVG Export Plug-In . SVG Version: 6.00 Build 0)  -->
<!DOCTYPE svg PUBLIC "-//W3C//DTD SVG 1.1//EN" "http://www.w3.org/Graphics/SVG/1.1/DTD/svg11.dtd">
<svg version="1.1" id="Capa_1" xmlns="http://www.w3.org/2000/svg" xmlns:xlink="http://www.w3.org/1999/xlink" x="0px" y="0px"
	 viewBox="0 0 512 512" enable-background="new 0 0 512 512" xml:space="preserve">
<g>
	<g>
		<path fill="#58585A" d="M459.3,401c-3.6-10.2-13.3-17-24.1-17h-20.6L384,330.6V239c0-18.8-15.3-34.1-34.1-34.1V93.9
			c1.7-50.1-37.5-92.1-87.6-93.9c-2.1-0.1-4.2-0.1-6.3,0c-58.7,0-92.2,48.2-93.9,93.5c0,0.1,0.1,0.2,0.1,0.3h-0.1v110.9
			c-18.8,0-34.1,15.3-34.1,34.1v91.6L97.5,384H76.8c-14.1,0-25.6,11.4-25.6,25.5c0,10.8,6.8,20.5,17,24.1
			c-12.3,13.9-11,35.2,2.9,47.5c5,4.5,11.3,7.3,18,8.2l165.8,22.6c0.8,0.1,1.5,0.1,2.3,0l165.8-22.6c18.4-2.4,31.4-19.3,29-37.8
			c-0.9-6.7-3.7-12.9-8.2-18C457.1,428.9,464,414.3,459.3,401z M256,17.1c40.5-1.9,74.9,29.4,76.8,70c0.1,2.3,0.1,4.5,0,6.8h-17.1
			c-23.5,0-42.6-19.1-42.7-42.7c0-4.7-3.8-8.5-8.5-8.5c-2.3,0-4.4,0.9-6,2.5c-21.2,21.2-48.7,35-78.3,39.2
			C184.9,46,217.4,17.2,256,17.1z M238.9,213.4v-36.5c5.6,1.5,11.3,2.3,17.1,2.4c5.8,0,11.5-0.9,17.1-2.4v36.5
			c0,4.7,3.8,8.5,8.5,8.5h17.1v10.9L256,247l-42.7-14.2v-10.9h17.1C235.1,221.9,238.9,218.1,238.9,213.4z M189.4,100
			c25.3-4.7,49.1-15.6,69.1-31.9c7.5,25.3,30.8,42.7,57.2,42.8h3.7c-10.7,28.6-37.7,51.2-63.4,51.2
			C226.4,162.2,196.4,133.5,189.4,100z M290.1,204.8V170c18.8-10.6,33.8-27,42.7-46.7v81.5h-25.6H290.1z M179.2,123.3
			c8.8,19.8,23.8,36.1,42.7,46.7v34.8h-42.7V123.3z M196.3,221.9V239c0,3.7,2.4,6.9,5.8,8.1v0l51.2,17.1c1.8,0.6,3.6,0.6,5.4,0
			l51.2-17.1c3.5-1.2,5.8-4.4,5.8-8.1v-17.1h23.2l-38.4,153.6h-89.1l-38.4-153.6H196.3z M208.7,392.5h94.5l34.3,40L256,443.7
			l-81.6-11.1L208.7,392.5z M154.4,429.8l-15.7-2.1l53.5-59.4l3.4,13.6L154.4,429.8z M316.6,381.8l3.4-13.6l53.5,59.4l-15.8,2.1
			L316.6,381.8z M68.3,409.6c0-4.7,3.8-8.5,8.5-8.5h25.6c3.1,0,5.9-1.6,7.4-4.3l34.1-59.7c0.7-1.3,1.1-2.8,1.1-4.3V239
			c0-7,4.2-13.2,10.7-15.8l15.6,62.6l15.6,62.6l-62.9,69.8H76.8C72.1,418.1,68.3,414.3,68.3,409.6z M256,494.9L91.4,472.4
			c-9.2-1.2-15.7-9.7-14.5-18.9c1.1-8.4,8.3-14.7,16.8-14.6c0.8,0,1.5,0.1,2.3,0.2l60.7,8.3l96.4,13.1l45.7,28.5L256,494.9z
			 M420.6,472.4l-95.5,13l-44.6-27.9l74.8-10.2L416,439c9.2-1.3,17.7,5.1,19,14.3c0.1,0.8,0.2,1.6,0.2,2.4
			C435.2,464.1,429,471.2,420.6,472.4z M435.2,418.1h-47.4l-62.9-69.9l15.6-62.6l15.6-62.6c6.5,2.6,10.7,8.9,10.7,15.8v93.9
			c0,1.5,0.4,3,1.1,4.3l34.1,59.7c1.5,2.6,4.4,4.3,7.4,4.3h25.6c4.7,0,8.5,3.8,8.5,8.5C443.7,414.3,439.9,418.1,435.2,418.1z"/>
	</g>
</g>
</svg>
