<?xml version="1.0" encoding="utf-8"?>
<!-- Generator: Adobe Illustrator 17.1.0, SVG Export Plug-In . SVG Version: 6.00 Build 0)  -->
<!DOCTYPE svg PUBLIC "-//W3C//DTD SVG 1.1//EN" "http://www.w3.org/Graphics/SVG/1.1/DTD/svg11.dtd">
<svg version="1.1" id="Слой_1" xmlns="http://www.w3.org/2000/svg" xmlns:xlink="http://www.w3.org/1999/xlink" x="0px" y="0px"
	 viewBox="0 0 512 512" enable-background="new 0 0 512 512" xml:space="preserve">
<g>
	<path fill="#58585A" d="M388.5,0h-265c-17.9,0-32.4,14.5-32.4,32.4v447.2c0,17.9,14.5,32.4,32.4,32.4h265
		c17.9,0,32.4-14.5,32.4-32.4V32.4C420.9,14.5,406.4,0,388.5,0z M107.3,81.5h297.3v338.6H107.3V81.5z M123.5,16.2h265
		c8.9,0,16.2,7.3,16.2,16.2v38.2H107.3V32.4C107.3,23.5,114.6,16.2,123.5,16.2z M388.5,495.8h-265c-8.9,0-16.2-7.3-16.2-16.2v-48.7
		h297.3v48.7C404.7,488.5,397.4,495.8,388.5,495.8z"/>
	<path fill="#58585A" d="M256,438.1c-14.7,0-26.6,11.9-26.6,26.6s11.9,26.6,26.6,26.6c14.7,0,26.6-11.9,26.6-26.6
		C282.6,450,270.7,438.1,256,438.1z M256,480.5c-8.7,0-15.8-7.1-15.8-15.8c0-8.7,7.1-15.8,15.8-15.8c8.7,0,15.8,7.1,15.8,15.8
		C271.8,473.4,264.7,480.5,256,480.5z"/>
	<path fill="#58585A" d="M219.2,51.6h73.6c3,0,5.4-2.4,5.4-5.4s-2.4-5.4-5.4-5.4h-73.6c-3,0-5.4,2.4-5.4,5.4S216.2,51.6,219.2,51.6z
		"/>
	<path fill="#58585A" d="M199.7,51.6c1.4,0,2.8-0.6,3.8-1.6c1-1,1.6-2.4,1.6-3.8s-0.6-2.8-1.6-3.8c-1-1-2.4-1.6-3.8-1.6
		c-1.4,0-2.8,0.6-3.8,1.6c-1,1-1.6,2.4-1.6,3.8s0.6,2.8,1.6,3.8C196.9,51,198.3,51.6,199.7,51.6z"/>
</g>
</svg>
